<?xml version="1.0" encoding="UTF-8" standalone="no"?>
<!DOCTYPE svg PUBLIC "-//W3C//DTD SVG 1.1//EN"
 "http://www.w3.org/Graphics/SVG/1.1/DTD/svg11.dtd">
<!-- Generated by graphviz version 12.0.0 (20240704.0754)
 -->
<!-- Title: ./insert_before.svg Pages: 1 -->
<svg width="718pt" height="524pt"
 viewBox="0.00 0.00 718.38 523.75" xmlns="http://www.w3.org/2000/svg" xmlns:xlink="http://www.w3.org/1999/xlink">
<g id="graph0" class="graph" transform="scale(1 1) rotate(0) translate(4 519.75)">
<title>./insert_before.svg</title>
<polygon fill="white" stroke="none" points="-4,4 -4,-519.75 714.38,-519.75 714.38,4 -4,4"/>
<!-- x -->
<g id="node1" class="node">
<title>x</title>
<path fill="AliceBlue" stroke="black" d="M12,-420.25C12,-420.25 127,-420.25 127,-420.25 133,-420.25 139,-426.25 139,-432.25 139,-432.25 139,-503.25 139,-503.25 139,-509.25 133,-515.25 127,-515.25 127,-515.25 12,-515.25 12,-515.25 6,-515.25 0,-509.25 0,-503.25 0,-503.25 0,-432.25 0,-432.25 0,-426.25 6,-420.25 12,-420.25"/>
<text text-anchor="middle" x="69.5" y="-497.95" font-family="Times New Roman,serif" font-size="14.00" fill="#000000">name=%x</text>
<polyline fill="none" stroke="black" points="0,-491.5 139,-491.5"/>
<text text-anchor="middle" x="69.5" y="-474.2" font-family="Times New Roman,serif" font-size="14.00" fill="#000000">op_code=placeholder</text>
<polyline fill="none" stroke="black" points="0,-467.75 139,-467.75"/>
<text text-anchor="middle" x="69.5" y="-450.45" font-family="Times New Roman,serif" font-size="14.00" fill="#000000">target=x</text>
<polyline fill="none" stroke="black" points="0,-444 139,-444"/>
<text text-anchor="middle" x="69.5" y="-426.7" font-family="Times New Roman,serif" font-size="14.00" fill="#000000">num_users=1</text>
</g>
<!-- linear -->
<g id="node2" class="node">
<title>linear</title>
<path fill="#fffacd" stroke="black" d="M217.12,-264.5C217.12,-264.5 377.88,-264.5 377.88,-264.5 383.88,-264.5 389.88,-270.5 389.88,-276.5 389.88,-276.5 389.88,-371.25 389.88,-371.25 389.88,-377.25 383.88,-383.25 377.88,-383.25 377.88,-383.25 217.12,-383.25 217.12,-383.25 211.12,-383.25 205.12,-377.25 205.12,-371.25 205.12,-371.25 205.12,-276.5 205.12,-276.5 205.12,-270.5 211.12,-264.5 217.12,-264.5"/>
<text text-anchor="middle" x="297.5" y="-365.95" font-family="Times New Roman,serif" font-size="14.00" fill="#000000">name=%linear</text>
<polyline fill="none" stroke="black" points="205.12,-359.5 389.88,-359.5"/>
<text text-anchor="middle" x="297.5" y="-342.2" font-family="Times New Roman,serif" font-size="14.00" fill="#000000">op_code=call_module</text>
<text text-anchor="middle" x="297.5" y="-310.45" font-family="Times New Roman,serif" font-size="14.00" fill="#000000">torch.nn.modules.linear.Linear</text>
<polyline fill="none" stroke="black" points="205.12,-304 389.88,-304"/>
<text text-anchor="middle" x="297.5" y="-286.7" font-family="Times New Roman,serif" font-size="14.00" fill="#000000">in_features: 512</text>
<text text-anchor="middle" x="297.5" y="-270.95" font-family="Times New Roman,serif" font-size="14.00" fill="#000000">out_features: 512</text>
</g>
<!-- x&#45;&gt;linear -->
<g id="edge3" class="edge">
<title>x&#45;&gt;linear</title>
<path fill="none" stroke="black" d="M139.46,-423.22C157.15,-412.21 176.52,-400.16 195.44,-388.38"/>
<polygon fill="black" stroke="black" points="197.05,-391.5 203.7,-383.25 193.36,-385.56 197.05,-391.5"/>
</g>
<!-- relu -->
<g id="node5" class="node">
<title>relu</title>
<path fill="#ffe1ff" stroke="black" d="M236.25,-132.5C236.25,-132.5 358.75,-132.5 358.75,-132.5 364.75,-132.5 370.75,-138.5 370.75,-144.5 370.75,-144.5 370.75,-215.5 370.75,-215.5 370.75,-221.5 364.75,-227.5 358.75,-227.5 358.75,-227.5 236.25,-227.5 236.25,-227.5 230.25,-227.5 224.25,-221.5 224.25,-215.5 224.25,-215.5 224.25,-144.5 224.25,-144.5 224.25,-138.5 230.25,-132.5 236.25,-132.5"/>
<text text-anchor="middle" x="297.5" y="-210.2" font-family="Times New Roman,serif" font-size="14.00" fill="#000000">name=%relu</text>
<polyline fill="none" stroke="black" points="224.25,-203.75 370.75,-203.75"/>
<text text-anchor="middle" x="297.5" y="-186.45" font-family="Times New Roman,serif" font-size="14.00" fill="#000000">op_code=call_function</text>
<polyline fill="none" stroke="black" points="224.25,-180 370.75,-180"/>
<text text-anchor="middle" x="297.5" y="-162.7" font-family="Times New Roman,serif" font-size="14.00" fill="#000000">target=torch.relu</text>
<polyline fill="none" stroke="black" points="224.25,-156.25 370.75,-156.25"/>
<text text-anchor="middle" x="297.5" y="-138.95" font-family="Times New Roman,serif" font-size="14.00" fill="#000000">num_users=2</text>
</g>
<!-- linear&#45;&gt;relu -->
<g id="edge4" class="edge">
<title>linear&#45;&gt;relu</title>
<path fill="none" stroke="black" d="M297.5,-264.35C297.5,-255.95 297.5,-247.32 297.5,-238.93"/>
<polygon fill="black" stroke="black" points="301,-239.21 297.5,-229.21 294,-239.21 301,-239.21"/>
</g>
<!-- linear.weight -->
<g id="node3" class="node">
<title>linear.weight</title>
<path fill="Salmon" stroke="black" d="M168.75,-444C168.75,-444 426.25,-444 426.25,-444 432.25,-444 438.25,-450 438.25,-456 438.25,-456 438.25,-479.5 438.25,-479.5 438.25,-485.5 432.25,-491.5 426.25,-491.5 426.25,-491.5 168.75,-491.5 168.75,-491.5 162.75,-491.5 156.75,-485.5 156.75,-479.5 156.75,-479.5 156.75,-456 156.75,-456 156.75,-450 162.75,-444 168.75,-444"/>
<text text-anchor="middle" x="297.5" y="-474.2" font-family="Times New Roman,serif" font-size="14.00" fill="#000000">linear.weight</text>
<polyline fill="none" stroke="black" points="156.75,-467.75 438.25,-467.75"/>
<text text-anchor="middle" x="297.5" y="-450.45" font-family="Times New Roman,serif" font-size="14.00" fill="#000000">op_code=get_parametertorch.float32[512, 512]</text>
</g>
<!-- linear.weight&#45;&gt;linear -->
<g id="edge1" class="edge">
<title>linear.weight&#45;&gt;linear</title>
<path fill="none" stroke="black" d="M297.5,-443.64C297.5,-430.24 297.5,-412.58 297.5,-394.99"/>
<polygon fill="black" stroke="black" points="301,-395 297.5,-385 294,-395 301,-395"/>
</g>
<!-- linear.bias -->
<g id="node4" class="node">
<title>linear.bias</title>
<path fill="Salmon" stroke="black" d="M468.62,-444C468.62,-444 698.38,-444 698.38,-444 704.38,-444 710.38,-450 710.38,-456 710.38,-456 710.38,-479.5 710.38,-479.5 710.38,-485.5 704.38,-491.5 698.38,-491.5 698.38,-491.5 468.62,-491.5 468.62,-491.5 462.62,-491.5 456.62,-485.5 456.62,-479.5 456.62,-479.5 456.62,-456 456.62,-456 456.62,-450 462.62,-444 468.62,-444"/>
<text text-anchor="middle" x="583.5" y="-474.2" font-family="Times New Roman,serif" font-size="14.00" fill="#000000">linear.bias</text>
<polyline fill="none" stroke="black" points="456.62,-467.75 710.38,-467.75"/>
<text text-anchor="middle" x="583.5" y="-450.45" font-family="Times New Roman,serif" font-size="14.00" fill="#000000">op_code=get_parametertorch.float32[512]</text>
</g>
<!-- linear.bias&#45;&gt;linear -->
<g id="edge2" class="edge">
<title>linear.bias&#45;&gt;linear</title>
<path fill="none" stroke="black" d="M536.91,-443.64C500.05,-425.35 447.18,-399.13 400.5,-375.97"/>
<polygon fill="black" stroke="black" points="402.2,-372.91 391.68,-371.6 399.09,-379.18 402.2,-372.91"/>
</g>
<!-- parameter_offload -->
<g id="node6" class="node">
<title>parameter_offload</title>
<path fill="#aeeeee" stroke="black" d="M147.38,-0.5C147.38,-0.5 291.62,-0.5 291.62,-0.5 297.62,-0.5 303.62,-6.5 303.62,-12.5 303.62,-12.5 303.62,-83.5 303.62,-83.5 303.62,-89.5 297.62,-95.5 291.62,-95.5 291.62,-95.5 147.38,-95.5 147.38,-95.5 141.38,-95.5 135.38,-89.5 135.38,-83.5 135.38,-83.5 135.38,-12.5 135.38,-12.5 135.38,-6.5 141.38,-0.5 147.38,-0.5"/>
<text text-anchor="middle" x="219.5" y="-78.2" font-family="Times New Roman,serif" font-size="14.00" fill="#000000">name=%parameter_offload</text>
<polyline fill="none" stroke="black" points="135.38,-71.75 303.62,-71.75"/>
<text text-anchor="middle" x="219.5" y="-54.45" font-family="Times New Roman,serif" font-size="14.00" fill="#000000">op_code=call_method</text>
<polyline fill="none" stroke="black" points="135.38,-48 303.62,-48"/>
<text text-anchor="middle" x="219.5" y="-30.7" font-family="Times New Roman,serif" font-size="14.00" fill="#000000">target=parameter_offload</text>
<polyline fill="none" stroke="black" points="135.38,-24.25 303.62,-24.25"/>
<text text-anchor="middle" x="219.5" y="-6.95" font-family="Times New Roman,serif" font-size="14.00" fill="#000000">num_users=0</text>
</g>
<!-- relu&#45;&gt;parameter_offload -->
<g id="edge6" class="edge">
<title>relu&#45;&gt;parameter_offload</title>
<path fill="none" stroke="black" d="M269.34,-132.07C264.2,-123.51 258.8,-114.49 253.51,-105.68"/>
<polygon fill="black" stroke="black" points="256.54,-103.94 248.4,-97.16 250.54,-107.54 256.54,-103.94"/>
</g>
<!-- output -->
<g id="node7" class="node">
<title>output</title>
<path fill="PowderBlue" stroke="black" d="M333.25,-0.5C333.25,-0.5 419.75,-0.5 419.75,-0.5 425.75,-0.5 431.75,-6.5 431.75,-12.5 431.75,-12.5 431.75,-83.5 431.75,-83.5 431.75,-89.5 425.75,-95.5 419.75,-95.5 419.75,-95.5 333.25,-95.5 333.25,-95.5 327.25,-95.5 321.25,-89.5 321.25,-83.5 321.25,-83.5 321.25,-12.5 321.25,-12.5 321.25,-6.5 327.25,-0.5 333.25,-0.5"/>
<text text-anchor="middle" x="376.5" y="-78.2" font-family="Times New Roman,serif" font-size="14.00" fill="#000000">name=%output</text>
<polyline fill="none" stroke="black" points="321.25,-71.75 431.75,-71.75"/>
<text text-anchor="middle" x="376.5" y="-54.45" font-family="Times New Roman,serif" font-size="14.00" fill="#000000">op_code=output</text>
<polyline fill="none" stroke="black" points="321.25,-48 431.75,-48"/>
<text text-anchor="middle" x="376.5" y="-30.7" font-family="Times New Roman,serif" font-size="14.00" fill="#000000">target=output</text>
<polyline fill="none" stroke="black" points="321.25,-24.25 431.75,-24.25"/>
<text text-anchor="middle" x="376.5" y="-6.95" font-family="Times New Roman,serif" font-size="14.00" fill="#000000">num_users=0</text>
</g>
<!-- relu&#45;&gt;output -->
<g id="edge5" class="edge">
<title>relu&#45;&gt;output</title>
<path fill="none" stroke="black" d="M326.02,-132.07C331.22,-123.51 336.7,-114.49 342.05,-105.68"/>
<polygon fill="black" stroke="black" points="345.03,-107.52 347.24,-97.16 339.05,-103.89 345.03,-107.52"/>
</g>
</g>
</svg>
