<?xml version="1.0" encoding="UTF-8" standalone="no"?>
<!DOCTYPE svg PUBLIC "-//W3C//DTD SVG 1.1//EN"
 "http://www.w3.org/Graphics/SVG/1.1/DTD/svg11.dtd">
<!-- Generated by graphviz version 12.0.0 (20240704.0754)
 -->
<!-- Title: ./woactivation.svg Pages: 1 -->
<svg width="718pt" height="392pt"
 viewBox="0.00 0.00 718.38 391.75" xmlns="http://www.w3.org/2000/svg" xmlns:xlink="http://www.w3.org/1999/xlink">
<g id="graph0" class="graph" transform="scale(1 1) rotate(0) translate(4 387.75)">
<title>./woactivation.svg</title>
<polygon fill="white" stroke="none" points="-4,4 -4,-387.75 714.38,-387.75 714.38,4 -4,4"/>
<!-- x -->
<g id="node1" class="node">
<title>x</title>
<path fill="AliceBlue" stroke="black" d="M12,-288.25C12,-288.25 127,-288.25 127,-288.25 133,-288.25 139,-294.25 139,-300.25 139,-300.25 139,-371.25 139,-371.25 139,-377.25 133,-383.25 127,-383.25 127,-383.25 12,-383.25 12,-383.25 6,-383.25 0,-377.25 0,-371.25 0,-371.25 0,-300.25 0,-300.25 0,-294.25 6,-288.25 12,-288.25"/>
<text text-anchor="middle" x="69.5" y="-365.95" font-family="Times New Roman,serif" font-size="14.00" fill="#000000">name=%x</text>
<polyline fill="none" stroke="black" points="0,-359.5 139,-359.5"/>
<text text-anchor="middle" x="69.5" y="-342.2" font-family="Times New Roman,serif" font-size="14.00" fill="#000000">op_code=placeholder</text>
<polyline fill="none" stroke="black" points="0,-335.75 139,-335.75"/>
<text text-anchor="middle" x="69.5" y="-318.45" font-family="Times New Roman,serif" font-size="14.00" fill="#000000">target=x</text>
<polyline fill="none" stroke="black" points="0,-312 139,-312"/>
<text text-anchor="middle" x="69.5" y="-294.7" font-family="Times New Roman,serif" font-size="14.00" fill="#000000">num_users=1</text>
</g>
<!-- linear -->
<g id="node2" class="node">
<title>linear</title>
<path fill="#fffacd" stroke="black" d="M217.12,-132.5C217.12,-132.5 377.88,-132.5 377.88,-132.5 383.88,-132.5 389.88,-138.5 389.88,-144.5 389.88,-144.5 389.88,-239.25 389.88,-239.25 389.88,-245.25 383.88,-251.25 377.88,-251.25 377.88,-251.25 217.12,-251.25 217.12,-251.25 211.12,-251.25 205.12,-245.25 205.12,-239.25 205.12,-239.25 205.12,-144.5 205.12,-144.5 205.12,-138.5 211.12,-132.5 217.12,-132.5"/>
<text text-anchor="middle" x="297.5" y="-233.95" font-family="Times New Roman,serif" font-size="14.00" fill="#000000">name=%linear</text>
<polyline fill="none" stroke="black" points="205.12,-227.5 389.88,-227.5"/>
<text text-anchor="middle" x="297.5" y="-210.2" font-family="Times New Roman,serif" font-size="14.00" fill="#000000">op_code=call_module</text>
<text text-anchor="middle" x="297.5" y="-178.45" font-family="Times New Roman,serif" font-size="14.00" fill="#000000">torch.nn.modules.linear.Linear</text>
<polyline fill="none" stroke="black" points="205.12,-172 389.88,-172"/>
<text text-anchor="middle" x="297.5" y="-154.7" font-family="Times New Roman,serif" font-size="14.00" fill="#000000">in_features: 512</text>
<text text-anchor="middle" x="297.5" y="-138.95" font-family="Times New Roman,serif" font-size="14.00" fill="#000000">out_features: 512</text>
</g>
<!-- x&#45;&gt;linear -->
<g id="edge3" class="edge">
<title>x&#45;&gt;linear</title>
<path fill="none" stroke="black" d="M139.46,-291.22C157.15,-280.21 176.52,-268.16 195.44,-256.38"/>
<polygon fill="black" stroke="black" points="197.05,-259.5 203.7,-251.25 193.36,-253.56 197.05,-259.5"/>
</g>
<!-- output -->
<g id="node5" class="node">
<title>output</title>
<path fill="PowderBlue" stroke="black" d="M254.25,-0.5C254.25,-0.5 340.75,-0.5 340.75,-0.5 346.75,-0.5 352.75,-6.5 352.75,-12.5 352.75,-12.5 352.75,-83.5 352.75,-83.5 352.75,-89.5 346.75,-95.5 340.75,-95.5 340.75,-95.5 254.25,-95.5 254.25,-95.5 248.25,-95.5 242.25,-89.5 242.25,-83.5 242.25,-83.5 242.25,-12.5 242.25,-12.5 242.25,-6.5 248.25,-0.5 254.25,-0.5"/>
<text text-anchor="middle" x="297.5" y="-78.2" font-family="Times New Roman,serif" font-size="14.00" fill="#000000">name=%output</text>
<polyline fill="none" stroke="black" points="242.25,-71.75 352.75,-71.75"/>
<text text-anchor="middle" x="297.5" y="-54.45" font-family="Times New Roman,serif" font-size="14.00" fill="#000000">op_code=output</text>
<polyline fill="none" stroke="black" points="242.25,-48 352.75,-48"/>
<text text-anchor="middle" x="297.5" y="-30.7" font-family="Times New Roman,serif" font-size="14.00" fill="#000000">target=output</text>
<polyline fill="none" stroke="black" points="242.25,-24.25 352.75,-24.25"/>
<text text-anchor="middle" x="297.5" y="-6.95" font-family="Times New Roman,serif" font-size="14.00" fill="#000000">num_users=0</text>
</g>
<!-- linear&#45;&gt;output -->
<g id="edge4" class="edge">
<title>linear&#45;&gt;output</title>
<path fill="none" stroke="black" d="M297.5,-132.35C297.5,-123.95 297.5,-115.32 297.5,-106.93"/>
<polygon fill="black" stroke="black" points="301,-107.21 297.5,-97.21 294,-107.21 301,-107.21"/>
</g>
<!-- linear.weight -->
<g id="node3" class="node">
<title>linear.weight</title>
<path fill="Salmon" stroke="black" d="M168.75,-312C168.75,-312 426.25,-312 426.25,-312 432.25,-312 438.25,-318 438.25,-324 438.25,-324 438.25,-347.5 438.25,-347.5 438.25,-353.5 432.25,-359.5 426.25,-359.5 426.25,-359.5 168.75,-359.5 168.75,-359.5 162.75,-359.5 156.75,-353.5 156.75,-347.5 156.75,-347.5 156.75,-324 156.75,-324 156.75,-318 162.75,-312 168.75,-312"/>
<text text-anchor="middle" x="297.5" y="-342.2" font-family="Times New Roman,serif" font-size="14.00" fill="#000000">linear.weight</text>
<polyline fill="none" stroke="black" points="156.75,-335.75 438.25,-335.75"/>
<text text-anchor="middle" x="297.5" y="-318.45" font-family="Times New Roman,serif" font-size="14.00" fill="#000000">op_code=get_parametertorch.float32[512, 512]</text>
</g>
<!-- linear.weight&#45;&gt;linear -->
<g id="edge1" class="edge">
<title>linear.weight&#45;&gt;linear</title>
<path fill="none" stroke="black" d="M297.5,-311.64C297.5,-298.24 297.5,-280.58 297.5,-262.99"/>
<polygon fill="black" stroke="black" points="301,-263 297.5,-253 294,-263 301,-263"/>
</g>
<!-- linear.bias -->
<g id="node4" class="node">
<title>linear.bias</title>
<path fill="Salmon" stroke="black" d="M468.62,-312C468.62,-312 698.38,-312 698.38,-312 704.38,-312 710.38,-318 710.38,-324 710.38,-324 710.38,-347.5 710.38,-347.5 710.38,-353.5 704.38,-359.5 698.38,-359.5 698.38,-359.5 468.62,-359.5 468.62,-359.5 462.62,-359.5 456.62,-353.5 456.62,-347.5 456.62,-347.5 456.62,-324 456.62,-324 456.62,-318 462.62,-312 468.62,-312"/>
<text text-anchor="middle" x="583.5" y="-342.2" font-family="Times New Roman,serif" font-size="14.00" fill="#000000">linear.bias</text>
<polyline fill="none" stroke="black" points="456.62,-335.75 710.38,-335.75"/>
<text text-anchor="middle" x="583.5" y="-318.45" font-family="Times New Roman,serif" font-size="14.00" fill="#000000">op_code=get_parametertorch.float32[512]</text>
</g>
<!-- linear.bias&#45;&gt;linear -->
<g id="edge2" class="edge">
<title>linear.bias&#45;&gt;linear</title>
<path fill="none" stroke="black" d="M536.91,-311.64C500.05,-293.35 447.18,-267.13 400.5,-243.97"/>
<polygon fill="black" stroke="black" points="402.2,-240.91 391.68,-239.6 399.09,-247.18 402.2,-240.91"/>
</g>
</g>
</svg>
