<?xml version="1.0" encoding="UTF-8" standalone="no"?>
<!DOCTYPE svg PUBLIC "-//W3C//DTD SVG 1.1//EN"
 "http://www.w3.org/Graphics/SVG/1.1/DTD/svg11.dtd">
<!-- Generated by graphviz version 12.0.0 (20240704.0754)
 -->
<!-- Title: ./before.svg Pages: 1 -->
<svg width="481pt" height="368pt"
 viewBox="0.00 0.00 480.62 368.00" xmlns="http://www.w3.org/2000/svg" xmlns:xlink="http://www.w3.org/1999/xlink">
<g id="graph0" class="graph" transform="scale(1 1) rotate(0) translate(4 364)">
<title>./before.svg</title>
<polygon fill="white" stroke="none" points="-4,4 -4,-364 476.62,-364 476.62,4 -4,4"/>
<!-- x -->
<g id="node1" class="node">
<title>x</title>
<path fill="AliceBlue" stroke="black" d="M101.75,-264.5C101.75,-264.5 216.75,-264.5 216.75,-264.5 222.75,-264.5 228.75,-270.5 228.75,-276.5 228.75,-276.5 228.75,-347.5 228.75,-347.5 228.75,-353.5 222.75,-359.5 216.75,-359.5 216.75,-359.5 101.75,-359.5 101.75,-359.5 95.75,-359.5 89.75,-353.5 89.75,-347.5 89.75,-347.5 89.75,-276.5 89.75,-276.5 89.75,-270.5 95.75,-264.5 101.75,-264.5"/>
<text text-anchor="middle" x="159.25" y="-342.2" font-family="Times New Roman,serif" font-size="14.00" fill="#000000">name=%x</text>
<polyline fill="none" stroke="black" points="89.75,-335.75 228.75,-335.75"/>
<text text-anchor="middle" x="159.25" y="-318.45" font-family="Times New Roman,serif" font-size="14.00" fill="#000000">op_code=placeholder</text>
<polyline fill="none" stroke="black" points="89.75,-312 228.75,-312"/>
<text text-anchor="middle" x="159.25" y="-294.7" font-family="Times New Roman,serif" font-size="14.00" fill="#000000">target=x</text>
<polyline fill="none" stroke="black" points="89.75,-288.25 228.75,-288.25"/>
<text text-anchor="middle" x="159.25" y="-270.95" font-family="Times New Roman,serif" font-size="14.00" fill="#000000">num_users=3</text>
</g>
<!-- add -->
<g id="node3" class="node">
<title>add</title>
<path fill="#ffe7ba" stroke="black" d="M12,-132.5C12,-132.5 134.5,-132.5 134.5,-132.5 140.5,-132.5 146.5,-138.5 146.5,-144.5 146.5,-144.5 146.5,-215.5 146.5,-215.5 146.5,-221.5 140.5,-227.5 134.5,-227.5 134.5,-227.5 12,-227.5 12,-227.5 6,-227.5 0,-221.5 0,-215.5 0,-215.5 0,-144.5 0,-144.5 0,-138.5 6,-132.5 12,-132.5"/>
<text text-anchor="middle" x="73.25" y="-210.2" font-family="Times New Roman,serif" font-size="14.00" fill="#000000">name=%add</text>
<polyline fill="none" stroke="black" points="0,-203.75 146.5,-203.75"/>
<text text-anchor="middle" x="73.25" y="-186.45" font-family="Times New Roman,serif" font-size="14.00" fill="#000000">op_code=call_function</text>
<polyline fill="none" stroke="black" points="0,-180 146.5,-180"/>
<text text-anchor="middle" x="73.25" y="-162.7" font-family="Times New Roman,serif" font-size="14.00" fill="#000000">target=_operator.add</text>
<polyline fill="none" stroke="black" points="0,-156.25 146.5,-156.25"/>
<text text-anchor="middle" x="73.25" y="-138.95" font-family="Times New Roman,serif" font-size="14.00" fill="#000000">num_users=1</text>
</g>
<!-- x&#45;&gt;add -->
<g id="edge1" class="edge">
<title>x&#45;&gt;add</title>
<path fill="none" stroke="black" d="M128.2,-264.07C122.48,-255.41 116.45,-246.3 110.56,-237.4"/>
<polygon fill="black" stroke="black" points="113.52,-235.54 105.09,-229.13 107.69,-239.4 113.52,-235.54"/>
</g>
<!-- add_1 -->
<g id="node4" class="node">
<title>add_1</title>
<path fill="#fff68f" stroke="black" d="M177,-132.5C177,-132.5 299.5,-132.5 299.5,-132.5 305.5,-132.5 311.5,-138.5 311.5,-144.5 311.5,-144.5 311.5,-215.5 311.5,-215.5 311.5,-221.5 305.5,-227.5 299.5,-227.5 299.5,-227.5 177,-227.5 177,-227.5 171,-227.5 165,-221.5 165,-215.5 165,-215.5 165,-144.5 165,-144.5 165,-138.5 171,-132.5 177,-132.5"/>
<text text-anchor="middle" x="238.25" y="-210.2" font-family="Times New Roman,serif" font-size="14.00" fill="#000000">name=%add_1</text>
<polyline fill="none" stroke="black" points="165,-203.75 311.5,-203.75"/>
<text text-anchor="middle" x="238.25" y="-186.45" font-family="Times New Roman,serif" font-size="14.00" fill="#000000">op_code=call_function</text>
<polyline fill="none" stroke="black" points="165,-180 311.5,-180"/>
<text text-anchor="middle" x="238.25" y="-162.7" font-family="Times New Roman,serif" font-size="14.00" fill="#000000">target=torch.add</text>
<polyline fill="none" stroke="black" points="165,-156.25 311.5,-156.25"/>
<text text-anchor="middle" x="238.25" y="-138.95" font-family="Times New Roman,serif" font-size="14.00" fill="#000000">num_users=1</text>
</g>
<!-- x&#45;&gt;add_1 -->
<g id="edge2" class="edge">
<title>x&#45;&gt;add_1</title>
<path fill="none" stroke="black" d="M187.77,-264.07C192.97,-255.51 198.45,-246.49 203.8,-237.68"/>
<polygon fill="black" stroke="black" points="206.78,-239.52 208.99,-229.16 200.8,-235.89 206.78,-239.52"/>
</g>
<!-- add_2 -->
<g id="node5" class="node">
<title>add_2</title>
<path fill="Salmon" stroke="black" d="M341.88,-132.5C341.88,-132.5 460.62,-132.5 460.62,-132.5 466.62,-132.5 472.62,-138.5 472.62,-144.5 472.62,-144.5 472.62,-215.5 472.62,-215.5 472.62,-221.5 466.62,-227.5 460.62,-227.5 460.62,-227.5 341.88,-227.5 341.88,-227.5 335.88,-227.5 329.88,-221.5 329.88,-215.5 329.88,-215.5 329.88,-144.5 329.88,-144.5 329.88,-138.5 335.88,-132.5 341.88,-132.5"/>
<text text-anchor="middle" x="401.25" y="-210.2" font-family="Times New Roman,serif" font-size="14.00" fill="#000000">name=%add_2</text>
<polyline fill="none" stroke="black" points="329.88,-203.75 472.62,-203.75"/>
<text text-anchor="middle" x="401.25" y="-186.45" font-family="Times New Roman,serif" font-size="14.00" fill="#000000">op_code=call_method</text>
<polyline fill="none" stroke="black" points="329.88,-180 472.62,-180"/>
<text text-anchor="middle" x="401.25" y="-162.7" font-family="Times New Roman,serif" font-size="14.00" fill="#000000">target=add</text>
<polyline fill="none" stroke="black" points="329.88,-156.25 472.62,-156.25"/>
<text text-anchor="middle" x="401.25" y="-138.95" font-family="Times New Roman,serif" font-size="14.00" fill="#000000">num_users=1</text>
</g>
<!-- x&#45;&gt;add_2 -->
<g id="edge3" class="edge">
<title>x&#45;&gt;add_2</title>
<path fill="none" stroke="black" d="M229.21,-268.77C232.25,-267.13 235.27,-265.53 238.25,-264 270.88,-247.21 282.87,-246.09 319.6,-228.14"/>
<polygon fill="black" stroke="black" points="320.76,-231.47 328.14,-223.87 317.63,-225.21 320.76,-231.47"/>
</g>
<!-- y -->
<g id="node2" class="node">
<title>y</title>
<path fill="AliceBlue" stroke="black" d="M258.75,-264.5C258.75,-264.5 373.75,-264.5 373.75,-264.5 379.75,-264.5 385.75,-270.5 385.75,-276.5 385.75,-276.5 385.75,-347.5 385.75,-347.5 385.75,-353.5 379.75,-359.5 373.75,-359.5 373.75,-359.5 258.75,-359.5 258.75,-359.5 252.75,-359.5 246.75,-353.5 246.75,-347.5 246.75,-347.5 246.75,-276.5 246.75,-276.5 246.75,-270.5 252.75,-264.5 258.75,-264.5"/>
<text text-anchor="middle" x="316.25" y="-342.2" font-family="Times New Roman,serif" font-size="14.00" fill="#000000">name=%y</text>
<polyline fill="none" stroke="black" points="246.75,-335.75 385.75,-335.75"/>
<text text-anchor="middle" x="316.25" y="-318.45" font-family="Times New Roman,serif" font-size="14.00" fill="#000000">op_code=placeholder</text>
<polyline fill="none" stroke="black" points="246.75,-312 385.75,-312"/>
<text text-anchor="middle" x="316.25" y="-294.7" font-family="Times New Roman,serif" font-size="14.00" fill="#000000">target=y</text>
<polyline fill="none" stroke="black" points="246.75,-288.25 385.75,-288.25"/>
<text text-anchor="middle" x="316.25" y="-270.95" font-family="Times New Roman,serif" font-size="14.00" fill="#000000">num_users=3</text>
</g>
<!-- y&#45;&gt;add -->
<g id="edge4" class="edge">
<title>y&#45;&gt;add</title>
<path fill="none" stroke="black" d="M246.33,-268.29C243.62,-266.82 240.92,-265.38 238.25,-264 205.67,-247.12 193.71,-245.92 156.77,-228.08"/>
<polygon fill="black" stroke="black" points="158.68,-225.12 148.16,-223.83 155.58,-231.4 158.68,-225.12"/>
</g>
<!-- y&#45;&gt;add_1 -->
<g id="edge5" class="edge">
<title>y&#45;&gt;add_1</title>
<path fill="none" stroke="black" d="M288.09,-264.07C282.95,-255.51 277.55,-246.49 272.26,-237.68"/>
<polygon fill="black" stroke="black" points="275.29,-235.94 267.15,-229.16 269.29,-239.54 275.29,-235.94"/>
</g>
<!-- y&#45;&gt;add_2 -->
<g id="edge6" class="edge">
<title>y&#45;&gt;add_2</title>
<path fill="none" stroke="black" d="M346.94,-264.07C352.59,-255.41 358.55,-246.3 364.37,-237.4"/>
<polygon fill="black" stroke="black" points="367.24,-239.42 369.78,-229.13 361.38,-235.59 367.24,-239.42"/>
</g>
<!-- output -->
<g id="node6" class="node">
<title>output</title>
<path fill="PowderBlue" stroke="black" d="M195,-0.5C195,-0.5 281.5,-0.5 281.5,-0.5 287.5,-0.5 293.5,-6.5 293.5,-12.5 293.5,-12.5 293.5,-83.5 293.5,-83.5 293.5,-89.5 287.5,-95.5 281.5,-95.5 281.5,-95.5 195,-95.5 195,-95.5 189,-95.5 183,-89.5 183,-83.5 183,-83.5 183,-12.5 183,-12.5 183,-6.5 189,-0.5 195,-0.5"/>
<text text-anchor="middle" x="238.25" y="-78.2" font-family="Times New Roman,serif" font-size="14.00" fill="#000000">name=%output</text>
<polyline fill="none" stroke="black" points="183,-71.75 293.5,-71.75"/>
<text text-anchor="middle" x="238.25" y="-54.45" font-family="Times New Roman,serif" font-size="14.00" fill="#000000">op_code=output</text>
<polyline fill="none" stroke="black" points="183,-48 293.5,-48"/>
<text text-anchor="middle" x="238.25" y="-30.7" font-family="Times New Roman,serif" font-size="14.00" fill="#000000">target=output</text>
<polyline fill="none" stroke="black" points="183,-24.25 293.5,-24.25"/>
<text text-anchor="middle" x="238.25" y="-6.95" font-family="Times New Roman,serif" font-size="14.00" fill="#000000">num_users=0</text>
</g>
<!-- add&#45;&gt;output -->
<g id="edge7" class="edge">
<title>add&#45;&gt;output</title>
<path fill="none" stroke="black" d="M132.82,-132.07C146.15,-121.57 160.34,-110.38 173.85,-99.74"/>
<polygon fill="black" stroke="black" points="175.74,-102.71 181.43,-93.77 171.41,-97.21 175.74,-102.71"/>
</g>
<!-- add_1&#45;&gt;output -->
<g id="edge8" class="edge">
<title>add_1&#45;&gt;output</title>
<path fill="none" stroke="black" d="M238.25,-132.07C238.25,-123.97 238.25,-115.46 238.25,-107.11"/>
<polygon fill="black" stroke="black" points="241.75,-107.38 238.25,-97.38 234.75,-107.38 241.75,-107.38"/>
</g>
<!-- add_2&#45;&gt;output -->
<g id="edge9" class="edge">
<title>add_2&#45;&gt;output</title>
<path fill="none" stroke="black" d="M342.4,-132.07C329.51,-121.79 315.8,-110.85 302.7,-100.4"/>
<polygon fill="black" stroke="black" points="304.93,-97.7 294.93,-94.21 300.57,-103.18 304.93,-97.7"/>
</g>
</g>
</svg>
